<svg xmlns="http://www.w3.org/2000/svg" viewBox="0 0 410 404">
  <defs>
    <linearGradient id="gradient" x1="0%" y1="0%" x2="100%" y2="100%">
      <stop offset="0%" style="stop-color:#41D1FF;stop-opacity:1" />
      <stop offset="100%" style="stop-color:#BD34FE;stop-opacity:1" />
    </linearGradient>
  </defs>
  <path d="M399.641 59.5246L215.643 388.545C211.844 395.338 202.084 395.378 198.228 388.618L10.5817 59.5563C6.38087 52.1896 12.6802 43.2665 21.0281 44.7586L205.223 77.6824C206.398 77.8924 207.601 77.8904 208.776 77.6764L389.119 44.8058C397.439 43.2894 403.768 52.1434 399.641 59.5246Z" fill="url(#gradient)"/>
  <path d="M292.965 1.5744L156.801 28.2552C154.563 28.6937 152.906 30.5903 152.906 32.8535V162.57C152.906 175.186 163.14 185.42 175.756 185.42H265.744C278.36 185.42 288.594 175.186 288.594 162.57V70.2017C288.594 64.4722 293.143 59.9236 298.872 59.9236H351.024C359.629 59.9236 366.57 52.9824 366.57 44.377V1.5744C366.57 0.704579 365.865 0 364.995 0H294.54C293.622 0 292.965 0.657218 292.965 1.5744Z" fill="url(#gradient)"/>
</svg>